<svg width="105" height="213" viewBox="0 0 105 213" fill="none" xmlns="http://www.w3.org/2000/svg">
<path d="M87.7954 212.265L15.9339 211.934C11.784 211.911 7.81276 210.242 4.89246 207.294C1.97215 204.345 0.341558 200.358 0.358778 196.208L1.12135 16.0614C1.12983 14.0053 1.54343 11.9711 2.33852 10.075C3.13361 8.17896 4.2946 6.45816 5.7551 5.01102C7.21561 3.56387 8.94701 2.41875 10.8503 1.64112C12.7536 0.863496 14.7915 0.468606 16.8476 0.479022L88.7019 0.809948C92.8518 0.830889 96.8238 2.49808 99.7454 5.44535C102.667 8.39263 104.299 12.379 104.284 16.529L103.522 196.668C103.513 198.725 103.1 200.76 102.305 202.657C101.51 204.554 100.349 206.275 98.8887 207.724C97.4284 209.172 95.6971 210.318 93.7937 211.098C91.8904 211.877 89.8521 212.274 87.7954 212.265Z" fill="#455A64"/>
</svg>
