<svg width="104" height="201" viewBox="0 0 104 201" fill="none" xmlns="http://www.w3.org/2000/svg">
<path d="M35.5104 197.357V191.206L24.482 191.127L24.3884 200.429L25.0719 200.479C28.1149 200.674 40.5535 200.962 42.5966 200.328C44.8699 199.623 35.5104 197.357 35.5104 197.357Z" fill="#4CAF4F"/>
<path d="M42.8556 199.753C42.8556 199.854 38.7262 199.94 33.64 199.94C28.5538 199.94 24.4244 199.854 24.4244 199.753C24.4244 199.652 28.5538 199.566 33.64 199.566C38.7262 199.566 42.8556 199.652 42.8556 199.753Z" fill="#263238"/>
<path d="M35.7047 198.616C35.6112 198.566 35.7047 198.242 35.9277 197.897C36.1508 197.551 36.4529 197.408 36.5249 197.48C36.5968 197.551 36.4457 197.825 36.2299 198.12C36.0141 198.415 35.7983 198.667 35.7047 198.616Z" fill="#263238"/>
<path d="M36.4097 199.019C36.309 199.019 36.3593 198.616 36.5752 198.235C36.791 197.854 37.0788 197.623 37.1579 197.681C37.237 197.738 37.1075 198.062 36.9061 198.4C36.7047 198.738 36.5032 199.055 36.4097 199.019Z" fill="#263238"/>
<path d="M27.7481 199.724C27.7049 199.724 27.5394 199.595 27.302 199.321C27.0122 198.97 26.6894 198.647 26.338 198.357C25.9925 198.081 25.5808 197.9 25.1438 197.832C24.8057 197.789 24.5899 197.832 24.5683 197.789C24.5467 197.746 24.7553 197.595 25.151 197.566C25.6732 197.555 26.1826 197.728 26.5898 198.055C26.9714 198.366 27.2932 198.744 27.5394 199.17C27.7049 199.487 27.7912 199.695 27.7481 199.724Z" fill="#263238"/>
<path d="M35.7407 197.458C35.791 197.544 35.604 197.76 35.2874 197.875C34.9709 197.99 34.6903 197.947 34.676 197.875C34.6616 197.803 34.8846 197.652 35.158 197.551C35.4313 197.451 35.6831 197.372 35.7407 197.458Z" fill="#263238"/>
<path d="M35.568 196.861C35.568 196.969 35.2802 197.055 34.9061 197.062C34.532 197.069 34.2371 196.983 34.2443 196.882C34.2515 196.782 34.5464 196.688 34.9061 196.681C35.2658 196.674 35.5536 196.76 35.568 196.861Z" fill="#263238"/>
<path d="M62.668 197.357V191.206L51.6395 191.127L51.546 200.336L52.2295 200.386C55.2725 200.58 67.7183 200.962 69.7542 200.328C72.0275 199.623 62.668 197.357 62.668 197.357Z" fill="#4CAF4F"/>
<path d="M70.0131 199.767C70.0131 199.868 65.8909 199.954 60.7975 199.954C55.7041 199.954 51.5891 199.868 51.5891 199.767C51.5891 199.667 55.7113 199.58 60.7975 199.58C65.8837 199.58 70.0131 199.667 70.0131 199.767Z" fill="#263238"/>
<path d="M62.8623 198.616C62.776 198.566 62.8623 198.242 63.0853 197.897C63.3083 197.551 63.6105 197.408 63.6824 197.48C63.7544 197.551 63.6033 197.825 63.3875 198.12C63.1716 198.415 62.9558 198.667 62.8623 198.616Z" fill="#263238"/>
<path d="M63.5673 199.019C63.4737 199.019 63.5169 198.616 63.7399 198.235C63.9629 197.854 64.2435 197.623 64.3226 197.681C64.4018 197.738 64.2651 198.062 64.0637 198.4C63.8622 198.738 63.668 199.055 63.5673 199.019Z" fill="#263238"/>
<path d="M54.9057 199.724C54.8625 199.724 54.7042 199.595 54.4596 199.321C54.1698 198.97 53.847 198.647 53.4956 198.357C53.1501 198.081 52.7384 197.9 52.3014 197.832C51.9705 197.789 51.7475 197.832 51.7259 197.789C51.7043 197.746 51.9129 197.595 52.3086 197.566C52.8308 197.555 53.3402 197.728 53.7474 198.055C54.1309 198.364 54.4531 198.742 54.697 199.17C54.8625 199.487 54.9488 199.695 54.9057 199.724Z" fill="#263238"/>
<path d="M62.8983 197.458C62.9486 197.544 62.7616 197.76 62.445 197.875C62.1285 197.99 61.8479 197.947 61.8335 197.875C61.8192 197.803 62.0422 197.652 62.3155 197.551C62.5889 197.451 62.8407 197.372 62.8983 197.458Z" fill="#263238"/>
<path d="M62.74 196.861C62.74 196.969 62.4522 197.055 62.0781 197.062C61.704 197.069 61.4163 196.983 61.4235 196.882C61.4307 196.782 61.7184 196.688 62.0781 196.681C62.4378 196.674 62.74 196.76 62.74 196.861Z" fill="#263238"/>
<path d="M103.3 14.7C103.012 14.405 102.3 14.5489 102.3 14.5489C102.372 14.1347 102.372 13.7114 102.3 13.2972C102.171 12.8943 101.264 12.9734 101.264 12.9734C101.222 12.6342 101.222 12.2911 101.264 11.9519C101.271 11.8767 101.255 11.8011 101.218 11.7354C101.181 11.6698 101.124 11.6172 101.056 11.585C100.627 11.4101 100.166 11.3268 99.703 11.3404C99.1491 10.9447 101.394 7.80089 102.228 6.79373C103.063 5.78656 102.912 5.00241 102.171 5.00241C101.66 5.00241 99.0412 8.02392 98.2355 9.03828C97.4297 10.0526 95.2931 12.8727 95.2211 10.621C95.1492 8.36923 94.2427 6.67143 93.6744 6.38367C93.1061 6.09591 92.5018 6.77214 92.8111 7.39802C93.0829 8.10909 93.2525 8.85511 93.3147 9.6138C93.3929 10.2181 93.3661 10.8315 93.2356 11.4267C92.9971 12.5343 92.6723 13.6215 92.2644 14.6784H92.2068C92.2068 14.6784 76.5094 29.7356 75.3727 30.8075C74.3584 31.7715 53.956 29.6637 49.8626 29.232C48.4716 29.0285 47.067 28.9323 45.6612 28.9442C43.8843 29.0234 43.5678 29.2752 41.798 29.2967C37.3287 29.3464 32.8697 29.7384 28.4602 30.4694C26.4636 30.8088 24.5986 31.6901 23.0686 33.0171C21.5387 34.3441 20.4025 36.0658 19.7842 37.9944C15.662 50.8717 6.32411 81.353 4.67667 98.4749C3.43178 100.732 2.30792 103.055 1.30985 105.432C0.151611 108.583 0.432179 108.69 0.820659 108.762C1.87099 108.957 3.0652 103.302 3.51124 104.669C3.95727 106.036 1.24511 111.41 2.3458 111.568C3.78461 111.769 4.92847 105.813 5.06516 105.338C5.20184 104.863 5.91406 105.014 5.78456 105.46C5.57593 106.093 3.5544 112.805 4.96444 113.021C5.7414 113.136 5.82772 111.719 5.82772 111.719C5.82772 111.719 7.26654 105.295 7.9212 105.424C8.57586 105.554 7.87803 109.345 7.54711 110.611C7.21618 111.877 7.6766 112.518 8.35284 112.208C8.81326 111.993 9.91396 108.144 10.2161 106.892C10.5183 105.64 11.2736 102.173 12.288 104.18C13.3024 106.187 14.8419 107.352 15.475 107.381C15.6176 107.365 15.7521 107.306 15.8611 107.212C15.97 107.119 16.0485 106.995 16.0864 106.856C16.1244 106.718 16.12 106.571 16.0738 106.435C16.0277 106.299 15.9419 106.18 15.8275 106.093C15.283 105.562 14.8156 104.956 14.439 104.295C14.1034 103.78 13.86 103.21 13.7196 102.611C13.4297 101.418 13.261 100.198 13.216 98.9712L13.1009 98.2518C14.7124 90.2736 19.3526 66.8569 26.0502 51.9005L28.7984 57.555L29.9926 61.742L22.669 79.8206L53.9056 79.4106L49.2439 61.4686L54.9056 42.764C61.0278 42.9007 76.7468 43.1309 79.3654 41.9439C82.6603 40.5051 99.703 18.9805 99.703 18.9805C100.814 18.1172 101.878 17.1951 102.89 16.218C102.89 16.218 103.926 15.3475 103.3 14.7Z" fill="#FFBE9D"/>
<path d="M21.295 66.4613C22.2014 63.3679 26.856 48.0733 26.856 48.0733C26.856 48.0733 29.1437 60.5406 28.5394 62.0442C27.9835 63.3313 27.3268 64.5726 26.5754 65.7563C21.295 73.7921 21.9856 77.8136 21.9856 77.8136L53.8913 76.8424C53.9632 72.382 51.323 62.0082 50.7762 60.3536C50.2295 58.6989 52.0496 53.2818 52.0496 53.2818C52.0496 53.2818 55.6466 49.62 55.5171 47.7352C55.4488 46.0421 55.2395 44.3576 54.8912 42.6993L74.3152 43.4187L73.7037 30.2536L45.8052 27.4623C44.834 30.2032 36.05 28.858 36.05 28.858C26.5682 29.1745 25.9783 30.9155 22.036 33.9801C18.0936 37.0448 11.5686 63.3463 11.5686 63.3463L21.295 66.4613Z" fill="#4CAF4F"/>
<path d="M40.1577 63.3463C39.6048 63.4451 39.0417 63.4741 38.4815 63.4326C37.4384 63.4326 36.0068 63.3607 34.4313 63.2024C32.8558 63.0441 31.4314 62.8211 30.417 62.6197C29.8577 62.5476 29.3093 62.4075 28.7839 62.2024C29.3464 62.2026 29.9076 62.2556 30.4602 62.3607C31.4817 62.4902 32.8989 62.67 34.4672 62.8283C36.0355 62.9866 37.46 63.0945 38.4887 63.1664C39.0495 63.1735 39.6083 63.2337 40.1577 63.3463Z" fill="#263238"/>
<path d="M42.3447 60.6341C41.7916 60.9051 41.2068 61.1056 40.6038 61.2312C37.7336 61.9854 34.7724 62.3365 31.8054 62.2743C31.1915 62.2943 30.5775 62.2363 29.9781 62.1017C30.5841 62.0252 31.1949 61.9939 31.8054 62.0082C32.9349 61.9722 34.4888 61.8931 36.201 61.6916C37.9132 61.4902 39.4383 61.2024 40.5174 60.9722C41.1168 60.8122 41.7278 60.6991 42.3447 60.6341Z" fill="#263238"/>
<path d="M53.0783 48.5337C53.0638 49.0822 52.989 49.6274 52.8553 50.1595C52.6682 51.1595 52.3805 52.5264 52.0136 54.0228C51.6467 55.5191 51.2942 56.9004 50.9776 57.8356C50.8504 58.3709 50.6621 58.8899 50.4165 59.3823C50.4566 58.8356 50.5579 58.295 50.7187 57.7709C50.992 56.6486 51.3014 55.3537 51.6467 53.9364C51.992 52.5192 52.3229 51.2243 52.5963 50.102C52.6937 49.5618 52.8555 49.0353 53.0783 48.5337Z" fill="#263238"/>
<path d="M21.6331 64.6268C19.9688 64.3698 18.3263 63.9874 16.7196 63.483C15.0778 63.0991 13.4667 62.5941 11.8995 61.9722C13.563 62.2334 15.2053 62.6157 16.8131 63.1161C18.4552 63.4986 20.0664 64.0036 21.6331 64.6268Z" fill="#263238"/>
<path d="M55.2366 42.541C54.9652 42.5877 54.6879 42.5877 54.4165 42.541C53.6651 42.464 52.9272 42.2874 52.2223 42.0159C51.0454 41.5736 49.9741 40.8901 49.0771 40.0092C48.1801 39.1283 47.4773 38.0696 47.0138 36.9009C46.5015 35.6153 46.2828 34.2315 46.3735 32.8506C46.4056 31.7116 46.7462 30.6027 47.3591 29.6421C47.7902 28.995 48.4341 28.519 49.1792 28.2968C49.3783 28.2419 49.5842 28.2152 49.7907 28.2177C49.9346 28.2177 50.0065 28.2177 50.0065 28.2177C50.0065 28.2177 49.7044 28.2177 49.2224 28.4119C48.5388 28.6644 47.959 29.1379 47.5749 29.7572C46.5965 31.2967 46.3232 34.1096 47.3663 36.7354C47.8518 37.9735 48.6119 39.0853 49.5893 39.9871C50.3901 40.7251 51.3126 41.3189 52.3158 41.7425C53.2573 42.1146 54.2368 42.3824 55.2366 42.541Z" fill="#263238"/>
<path d="M72.0059 43.1597C71.8259 40.9537 71.7682 38.7393 71.8332 36.5268C71.7768 34.3162 71.8441 32.1042 72.0346 29.9011C72.2147 32.1048 72.2724 34.3167 72.2073 36.5268C72.2678 38.7398 72.2005 40.9545 72.0059 43.1597Z" fill="#263238"/>
<path d="M45.6181 28.268C45.6972 26.6638 45.8627 24.8508 45.8627 24.8508C45.8627 24.8508 49.8338 24.412 50.0712 20.3114C50.3086 16.2108 50.0712 6.75059 50.0712 6.75059L42.8771 3.06723L34.8917 9.34764L36.1219 29.8507L43.4455 30.3183C44.0053 30.3338 44.5484 30.1267 44.9556 29.7423C45.3629 29.358 45.6011 28.8278 45.6181 28.268Z" fill="#FFBE9D"/>
<path d="M46.3303 17.0669C46.3303 17.0669 46.3303 17.146 46.2655 17.2395C46.212 17.3074 46.1428 17.3612 46.0638 17.3962C45.9848 17.4313 45.8985 17.4467 45.8123 17.441C45.3519 17.441 44.9059 16.9086 44.7476 16.2899C44.6724 15.99 44.6724 15.6762 44.7476 15.3763C44.7623 15.2454 44.8096 15.1202 44.8849 15.0122C44.9603 14.9041 45.0615 14.8166 45.1792 14.7576C45.276 14.7176 45.3846 14.7176 45.4814 14.7576C45.5531 14.7932 45.6112 14.8513 45.6468 14.923C45.6972 15.0453 45.6468 15.1245 45.6468 15.1173C45.6468 15.1101 45.6468 15.0453 45.5749 14.9734C45.5373 14.9219 45.482 14.886 45.4196 14.8728C45.3572 14.8595 45.2921 14.8697 45.2368 14.9015C45.1485 14.9548 45.0752 15.0296 45.0236 15.1189C44.9721 15.2082 44.9439 15.3091 44.9418 15.4122C44.8813 15.6798 44.8813 15.9576 44.9418 16.2252C45.0857 16.7863 45.4742 17.2395 45.8195 17.2827C45.887 17.2919 45.9558 17.287 46.0214 17.2684C46.087 17.2499 46.148 17.218 46.2008 17.1748C46.2871 17.1172 46.3159 17.0597 46.3303 17.0669Z" fill="#EB996E"/>
<path d="M52.5389 4.53483C51.9849 2.64998 49.9778 1.71475 48.1505 1.19678C45.3664 0.405435 42.3592 0.0601185 39.6399 1.06009C36.9205 2.06007 33.6544 3.81542 33.6544 6.81534C32.0502 6.68585 31.1293 8.08869 30.4962 9.82966C30.0915 10.8903 29.849 12.006 29.7768 13.1389C29.5754 17.0669 28.4747 22.4912 25.928 25.3688C24.4892 26.9731 22.4964 28.081 21.6763 30.0809C20.9569 31.8147 21.331 33.8722 20.662 35.6276C20.0648 37.1743 18.7483 38.275 17.7843 39.6203C16.8022 41.1464 16.2242 42.8972 16.1047 44.7081C15.9851 46.519 16.3279 48.3305 17.1009 49.9725C17.8794 51.5724 18.9755 52.9971 20.3224 54.1597C21.6693 55.3223 23.2388 56.1985 24.9352 56.7349C28.2956 57.7573 31.879 57.7923 35.2587 56.8357C37.7952 56.2292 40.1613 55.056 42.1794 53.4041C44.2443 51.7178 45.6626 49.3693 46.1937 46.7568C46.7045 43.8216 45.8843 40.8361 45.2728 37.9153C43.3592 28.6853 43.906 28.2033 46.3232 19.6352C46.3807 19.4841 46.4095 19.3258 46.4527 19.1747C46.4958 19.0237 46.5174 18.9517 46.5462 18.8366C46.6149 18.4979 46.651 18.1534 46.6541 17.8079C46.301 17.9392 45.9178 17.9669 45.5495 17.8879C45.1812 17.8089 44.8432 17.6264 44.575 17.3618C44.3063 17.0798 44.1189 16.7302 44.0328 16.3502C43.9466 15.9702 43.965 15.574 44.0858 15.2036C44.2556 14.7985 44.5085 14.4336 44.8282 14.1324C45.1479 13.8313 45.5274 13.6007 45.9419 13.4555C46.7404 13.1245 47.5965 12.9519 48.3807 12.585C50.0425 11.7936 51.1936 10.1534 51.9777 8.43401C52.6224 7.24234 52.8214 5.85993 52.5389 4.53483Z" fill="#263238"/>
<path d="M46.6181 17.2611C46.7701 17.4857 46.8956 17.7271 46.9922 17.9805C47.208 18.4338 47.4958 19.074 47.8123 19.815L47.8699 19.9517H47.7188L46.9994 20.0165C46.503 20.0165 46.0857 20.11 45.5965 20.1028C45.5539 20.0932 45.5145 20.073 45.4818 20.0441C45.4491 20.0152 45.4242 19.9784 45.4095 19.9373C45.3881 19.8719 45.3881 19.8013 45.4095 19.7359C45.4261 19.6389 45.4478 19.5429 45.4742 19.4481L45.6037 18.9374C45.6688 18.5966 45.7701 18.2638 45.9059 17.9446C45.8925 18.2919 45.8418 18.6368 45.7548 18.9733L45.6541 19.4841C45.6181 19.6568 45.5534 19.9229 45.6541 19.9014C46.0138 19.9014 46.5246 19.8222 46.9994 19.7935L47.7188 19.7287L47.6253 19.887C47.3159 19.1676 47.0569 18.4913 46.9059 18.0237C46.7733 17.7849 46.6764 17.528 46.6181 17.2611Z" fill="#4CAF4F"/>
<path d="M21.9856 77.8135L53.8913 76.8423L67.7758 131.042L65.2219 193.213H48.3518L50.4165 132.366L38.0787 94.6332L39.9779 195.623L22.928 195.875L21.1367 100.95C21.0576 98.3094 20.1943 92.3599 20.518 89.7413L21.9856 77.8135Z" fill="#263238"/>
<path d="M42.3233 95.403C41.801 95.4359 41.2767 95.4045 40.7622 95.3095C39.7981 95.1944 38.4816 94.993 37.0356 94.7052C35.5896 94.4175 34.2947 94.0865 33.3595 93.8204C32.8595 93.7105 32.3759 93.5364 31.9207 93.3024C31.9207 93.1945 34.2659 93.7556 37.1435 94.3383C40.0212 94.9211 42.3377 95.2951 42.3233 95.403Z" fill="#455A64"/>
<path d="M65.0493 189.804C65.0493 189.904 61.2293 189.991 56.5171 189.991C51.805 189.991 47.9778 189.904 47.9778 189.804C47.9778 189.703 51.7978 189.616 56.5171 189.616C61.2364 189.616 65.0493 189.696 65.0493 189.804Z" fill="#455A64"/>
<path d="M39.8268 192.998C39.8268 193.105 36.1147 193.185 31.5393 193.185C26.9639 193.185 23.2589 193.105 23.2589 192.998C23.2589 192.89 26.9711 192.811 31.5393 192.811C36.1075 192.811 39.8268 192.897 39.8268 192.998Z" fill="#455A64"/>
<path d="M37.6254 192.739C37.5247 192.739 37.0787 170.675 36.6255 143.459C36.1722 116.244 35.9061 94.1656 35.9996 94.1656C36.0931 94.1656 36.5535 116.223 36.9996 143.452C37.4456 170.682 37.7334 192.739 37.6254 192.739Z" fill="#455A64"/>
<path d="M62.7831 189.803C62.7752 189.705 62.7752 189.607 62.7831 189.509V188.645C62.7831 187.868 62.8406 186.753 62.8838 185.336C62.9845 182.458 63.1284 178.279 63.3082 173.156C63.6967 162.855 64.2435 148.653 64.8406 132.978C64.8406 132.827 64.8406 132.683 64.8406 132.553V132.603C61.0637 117.496 57.6465 103.784 55.1646 93.8635L52.2869 82.13C51.956 80.7559 51.7042 79.684 51.5244 78.9358C51.4381 78.5833 51.3805 78.3099 51.3301 78.1013C51.3021 78.0077 51.2852 77.9111 51.2798 77.8135C51.3172 77.9042 51.346 77.9981 51.3661 78.0941C51.4237 78.2955 51.4956 78.5689 51.5963 78.9142C51.7906 79.6336 52.0711 80.7271 52.4308 82.094C53.1502 84.8709 54.1646 88.8708 55.4308 93.7987C57.9343 103.712 61.3874 117.388 65.2147 132.517V132.568C65.2147 132.697 65.2147 132.848 65.2147 132.992C64.5744 148.668 63.9917 162.862 63.5672 173.164C63.3442 178.293 63.1572 182.444 63.0277 185.336C62.9557 186.775 62.8982 187.868 62.8622 188.645C62.8622 189.012 62.8191 189.3 62.8119 189.509C62.8129 189.608 62.8033 189.707 62.7831 189.803Z" fill="#455A64"/>
<path d="M57.2797 131.287C56.068 131.685 54.8197 131.963 53.5532 132.114C51.9993 132.38 50.6756 132.568 50.0785 132.596V132.452C50.2727 132.51 50.3734 132.546 50.3734 132.575C50.3734 132.604 50.2511 132.575 50.0497 132.575H49.618L50.0497 132.445C50.6108 132.28 51.9345 132.006 53.4885 131.726C54.7347 131.455 56.0046 131.308 57.2797 131.287Z" fill="#455A64"/>
<path d="M56.9847 133.352C55.8625 133.403 54.738 133.353 53.625 133.201C52.5013 133.178 51.3818 133.055 50.2798 132.834C52.5281 132.65 54.7912 132.825 56.9847 133.352Z" fill="#455A64"/>
<path opacity="0.2" d="M21.8489 78.9574C22.2267 79.4426 22.7027 79.8426 23.2456 80.1315C23.7886 80.4203 24.3863 80.5914 24.9999 80.6336C26.2849 80.7858 27.5846 80.7616 28.8631 80.5616C37.1003 79.648 45.8267 78.8063 53.8912 76.8423C43.4526 77.425 32.4241 77.2308 21.9856 77.8135L21.8776 78.7056" fill="black"/>
<g opacity="0.2">
<path d="M32.604 93.6693L38.4887 116.503L38.0787 94.6333L32.604 93.6693Z" fill="black"/>
</g>
</svg>
