<svg width="34" height="34" viewBox="0 0 34 34" fill="none" xmlns="http://www.w3.org/2000/svg">
<mask id="path-1-inside-1_211_2338" fill="white">
<path d="M20.0111 16.7646C19.8435 16.7646 19.6879 16.7185 19.5496 16.6444V16.6464C19.5496 16.9101 19.4471 17.1577 19.2612 17.3432C19.0752 17.5292 18.8277 17.6317 18.5643 17.6317C18.3943 17.6317 18.2367 17.5844 18.097 17.5083C18.0828 17.7496 17.9864 17.9751 17.8144 18.1473C17.6284 18.3332 17.381 18.4357 17.1174 18.4357C16.5938 18.4357 16.1685 18.0241 16.1379 17.5082C15.9759 17.5957 15.7927 17.6417 15.6037 17.6295C15.0886 17.5957 14.6852 17.1507 14.6852 16.616V12.1844L14.1806 13.0586C13.9884 13.393 13.6286 13.6006 13.2412 13.6006C13.0525 13.6006 12.866 13.5511 12.7009 13.4565C12.4952 13.3373 12.3481 13.1459 12.287 12.9169C12.2255 12.6878 12.2573 12.4482 12.3762 12.2429C12.3763 12.2429 14.0273 9.38402 14.128 9.2084C14.1399 9.182 14.1741 9.10542 14.2031 9.04015C14.2308 8.97783 14.2546 8.91388 14.2774 8.84959C14.7752 7.44403 16.008 6.57093 17.4947 6.57093C19.4254 6.57093 20.9961 8.27414 20.9961 10.3677L20.9963 15.7792C20.9963 16.0426 20.894 16.29 20.7082 16.4762C20.5222 16.6621 20.2747 16.7646 20.0111 16.7646L20.0111 16.7646ZM17.4948 7.09447C16.2172 7.09447 15.199 7.81606 14.7708 9.02468C14.7435 9.10143 14.7149 9.17817 14.6816 9.25296C14.585 9.46959 14.585 9.46959 14.5578 9.50075L14.5542 9.49763C14.4194 9.75198 14.0189 10.4455 12.8295 12.5049C12.7806 12.5894 12.7677 12.6875 12.7926 12.7813C12.8179 12.8751 12.8784 12.9541 12.9622 13.0025C13.2223 13.1519 13.5785 13.0555 13.7267 12.7972L14.7203 11.0769C14.7797 10.9744 14.8997 10.924 15.0149 10.9552C15.1293 10.9859 15.2089 11.0897 15.2089 11.2081V16.6162C15.2089 16.8714 15.4014 17.0916 15.6381 17.1072C15.7745 17.1144 15.9018 17.0686 15.9974 16.9732C16.0843 16.8863 16.1322 16.7705 16.1322 16.6467V13.1097C16.1322 12.9651 16.2494 12.8478 16.3941 12.8478C16.5387 12.8478 16.656 12.9649 16.656 13.1097L16.6558 17.4506C16.6558 17.7052 16.8629 17.9123 17.1174 17.9123C17.2411 17.9123 17.3572 17.8644 17.4443 17.7775C17.5312 17.6904 17.5791 17.5743 17.5791 17.4506V13.1097C17.5791 12.9651 17.6962 12.8478 17.841 12.8478C17.9856 12.8478 18.1029 12.9649 18.1029 13.1097L18.1027 16.606V16.6467C18.1027 16.901 18.3098 17.1081 18.5645 17.1081C18.688 17.1081 18.8038 17.0601 18.8913 16.9728C18.9783 16.8861 19.0261 16.7703 19.0261 16.6465V13.1095C19.0261 12.9649 19.1432 12.8476 19.288 12.8476C19.4327 12.8476 19.5499 12.9647 19.5499 13.1095L19.5496 15.7793C19.5496 16.034 19.7567 16.2411 20.0111 16.2411C20.1349 16.2411 20.2507 16.1931 20.3376 16.1063C20.4248 16.0191 20.4725 15.903 20.4725 15.7793L20.4727 10.3678C20.4727 8.5631 19.1368 7.09452 17.4947 7.09452L17.4948 7.09447Z"/>
</mask>
<path d="M20.0111 16.7646C19.8435 16.7646 19.6879 16.7185 19.5496 16.6444V16.6464C19.5496 16.9101 19.4471 17.1577 19.2612 17.3432C19.0752 17.5292 18.8277 17.6317 18.5643 17.6317C18.3943 17.6317 18.2367 17.5844 18.097 17.5083C18.0828 17.7496 17.9864 17.9751 17.8144 18.1473C17.6284 18.3332 17.381 18.4357 17.1174 18.4357C16.5938 18.4357 16.1685 18.0241 16.1379 17.5082C15.9759 17.5957 15.7927 17.6417 15.6037 17.6295C15.0886 17.5957 14.6852 17.1507 14.6852 16.616V12.1844L14.1806 13.0586C13.9884 13.393 13.6286 13.6006 13.2412 13.6006C13.0525 13.6006 12.866 13.5511 12.7009 13.4565C12.4952 13.3373 12.3481 13.1459 12.287 12.9169C12.2255 12.6878 12.2573 12.4482 12.3762 12.2429C12.3763 12.2429 14.0273 9.38402 14.128 9.2084C14.1399 9.182 14.1741 9.10542 14.2031 9.04015C14.2308 8.97783 14.2546 8.91388 14.2774 8.84959C14.7752 7.44403 16.008 6.57093 17.4947 6.57093C19.4254 6.57093 20.9961 8.27414 20.9961 10.3677L20.9963 15.7792C20.9963 16.0426 20.894 16.29 20.7082 16.4762C20.5222 16.6621 20.2747 16.7646 20.0111 16.7646L20.0111 16.7646ZM17.4948 7.09447C16.2172 7.09447 15.199 7.81606 14.7708 9.02468C14.7435 9.10143 14.7149 9.17817 14.6816 9.25296C14.585 9.46959 14.585 9.46959 14.5578 9.50075L14.5542 9.49763C14.4194 9.75198 14.0189 10.4455 12.8295 12.5049C12.7806 12.5894 12.7677 12.6875 12.7926 12.7813C12.8179 12.8751 12.8784 12.9541 12.9622 13.0025C13.2223 13.1519 13.5785 13.0555 13.7267 12.7972L14.7203 11.0769C14.7797 10.9744 14.8997 10.924 15.0149 10.9552C15.1293 10.9859 15.2089 11.0897 15.2089 11.2081V16.6162C15.2089 16.8714 15.4014 17.0916 15.6381 17.1072C15.7745 17.1144 15.9018 17.0686 15.9974 16.9732C16.0843 16.8863 16.1322 16.7705 16.1322 16.6467V13.1097C16.1322 12.9651 16.2494 12.8478 16.3941 12.8478C16.5387 12.8478 16.656 12.9649 16.656 13.1097L16.6558 17.4506C16.6558 17.7052 16.8629 17.9123 17.1174 17.9123C17.2411 17.9123 17.3572 17.8644 17.4443 17.7775C17.5312 17.6904 17.5791 17.5743 17.5791 17.4506V13.1097C17.5791 12.9651 17.6962 12.8478 17.841 12.8478C17.9856 12.8478 18.1029 12.9649 18.1029 13.1097L18.1027 16.606V16.6467C18.1027 16.901 18.3098 17.1081 18.5645 17.1081C18.688 17.1081 18.8038 17.0601 18.8913 16.9728C18.9783 16.8861 19.0261 16.7703 19.0261 16.6465V13.1095C19.0261 12.9649 19.1432 12.8476 19.288 12.8476C19.4327 12.8476 19.5499 12.9647 19.5499 13.1095L19.5496 15.7793C19.5496 16.034 19.7567 16.2411 20.0111 16.2411C20.1349 16.2411 20.2507 16.1931 20.3376 16.1063C20.4248 16.0191 20.4725 15.903 20.4725 15.7793L20.4727 10.3678C20.4727 8.5631 19.1368 7.09452 17.4947 7.09452L17.4948 7.09447Z" fill="#4CAF4F"/>
<path d="M20.0111 16.7646V15.8365H23.2901L20.4975 17.555L20.0111 16.7646ZM19.5496 16.6444H18.6215V15.0937L19.9882 15.8265L19.5496 16.6444ZM19.2612 17.3432L18.6049 16.6869L18.6058 16.6861L19.2612 17.3432ZM18.097 17.5083L17.1704 17.4542L17.2558 15.9935L18.5408 16.6933L18.097 17.5083ZM17.8144 18.1473L18.471 18.8032L18.4707 18.8035L17.8144 18.1473ZM16.1379 17.5082L15.6966 16.6917L16.978 15.9992L17.0643 17.4531L16.1379 17.5082ZM15.6037 17.6295L15.5442 18.5557L15.543 18.5556L15.6037 17.6295ZM14.6852 12.1844L13.8814 11.7204L15.6133 8.72004V12.1844H14.6852ZM14.1806 13.0586L13.3759 12.5961L13.3768 12.5947L14.1806 13.0586ZM12.7009 13.4565L12.2395 14.2618L12.2354 14.2594L12.7009 13.4565ZM12.287 12.9169L13.1833 12.6763L13.1836 12.6774L12.287 12.9169ZM12.3762 12.2429L11.573 11.7779L11.8411 11.3148H12.3762V12.2429ZM14.128 9.2084L14.9732 9.59166L14.955 9.63185L14.9331 9.67013L14.128 9.2084ZM14.2031 9.04015L13.3551 8.66302L13.3551 8.66301L14.2031 9.04015ZM14.2774 8.84959L15.1522 9.15946L15.1521 9.15972L14.2774 8.84959ZM20.9961 10.3677L20.068 10.3677V10.3677H20.9961ZM20.9963 15.7792L21.9244 15.7792V15.7792H20.9963ZM20.7082 16.4762L21.365 17.1318L21.3644 17.1324L20.7082 16.4762ZM20.0111 16.7646V17.6927H16.7321L19.5246 15.9742L20.0111 16.7646ZM17.4948 7.09447V6.16638H18.7252L18.3871 7.34944L17.4948 7.09447ZM14.7708 9.02468L15.6457 9.3346L15.6449 9.3366L14.7708 9.02468ZM14.6816 9.25296L15.5295 9.63041L15.5293 9.6309L14.6816 9.25296ZM14.5578 9.50075L15.2567 10.1114L14.6496 10.8063L13.9512 10.2031L14.5578 9.50075ZM14.5542 9.49763L13.7342 9.06303L14.2795 8.03407L15.1608 8.79523L14.5542 9.49763ZM12.8295 12.5049L13.6332 12.9691L13.6328 12.9698L12.8295 12.5049ZM12.7926 12.7813L11.8964 13.0225L11.8956 13.0196L12.7926 12.7813ZM12.9622 13.0025L12.4999 13.8073L12.4982 13.8063L12.9622 13.0025ZM13.7267 12.7972L12.9218 12.3352L12.923 12.333L13.7267 12.7972ZM14.7203 11.0769L13.9167 10.6127L13.9172 10.6117L14.7203 11.0769ZM15.0149 10.9552L14.7747 11.8517L14.7724 11.851L15.0149 10.9552ZM15.6381 17.1072L15.589 18.034L15.5771 18.0333L15.6381 17.1072ZM15.9974 16.9732L16.6536 17.6295L16.653 17.63L15.9974 16.9732ZM16.656 13.1097H17.584V13.1097L16.656 13.1097ZM16.6558 17.4506H15.7277V17.4506L16.6558 17.4506ZM17.4443 17.7775L18.1011 18.4331L18.0999 18.4344L17.4443 17.7775ZM18.1029 13.1097H19.031V13.1097L18.1029 13.1097ZM18.1027 16.606H17.1746V16.606L18.1027 16.606ZM18.8913 16.9728L19.547 17.6297L19.5464 17.6303L18.8913 16.9728ZM19.5499 13.1095H20.478V13.1096L19.5499 13.1095ZM19.5496 15.7793H18.6215V15.7792L19.5496 15.7793ZM20.3376 16.1063L20.9938 16.7626L20.9932 16.7632L20.3376 16.1063ZM20.4725 15.7793H19.5444V15.7793L20.4725 15.7793ZM20.4727 10.3678H21.4008V10.3679L20.4727 10.3678ZM17.4947 7.09452V8.02262H16.2643L16.6024 6.83956L17.4947 7.09452ZM20.0111 17.6927C19.6693 17.6927 19.3642 17.5981 19.111 17.4623L19.9882 15.8265C20.0002 15.8329 20.0078 15.8354 20.0108 15.8362C20.0134 15.8369 20.0131 15.8365 20.0111 15.8365V17.6927ZM20.4777 16.6444V16.6464H18.6215V16.6444H20.4777ZM20.4777 16.6464C20.4777 17.1555 20.2779 17.6399 19.9165 18.0003L18.6058 16.6861C18.6124 16.6795 18.6157 16.6738 18.6176 16.6692C18.6195 16.6645 18.6215 16.6574 18.6215 16.6464H20.4777ZM19.9174 17.9995C19.5572 18.3596 19.0737 18.5598 18.5643 18.5598V16.7036C18.575 16.7036 18.582 16.7016 18.5868 16.6997C18.5915 16.6977 18.5976 16.6942 18.6049 16.6869L19.9174 17.9995ZM18.5643 18.5598C18.2181 18.5598 17.9092 18.4629 17.6531 18.3234L18.5408 16.6933C18.5529 16.6999 18.5606 16.7024 18.5636 16.7032C18.5662 16.7039 18.566 16.7036 18.5643 16.7036V18.5598ZM19.0235 17.5625C18.9968 18.0193 18.8114 18.4624 18.471 18.8032L17.1578 17.4914C17.1612 17.4879 17.1632 17.4849 17.1649 17.481C17.1667 17.4768 17.1696 17.4683 17.1704 17.4542L19.0235 17.5625ZM18.4707 18.8035C18.1104 19.1638 17.6268 19.3638 17.1174 19.3638V17.5076C17.1282 17.5076 17.1353 17.5057 17.14 17.5037C17.1448 17.5017 17.1509 17.4983 17.1581 17.491L18.4707 18.8035ZM17.1174 19.3638C16.0928 19.3638 15.2706 18.5597 15.2114 17.5632L17.0643 17.4531C17.0653 17.4689 17.0717 17.4828 17.0832 17.4937C17.0887 17.499 17.0944 17.5024 17.0993 17.5044C17.1036 17.5062 17.1091 17.5076 17.1174 17.5076V19.3638ZM16.5792 18.3247C16.2794 18.4867 15.9239 18.5801 15.5442 18.5557L15.6632 16.7033C15.6633 16.7033 15.6652 16.7035 15.6701 16.7024C15.6754 16.7012 15.6844 16.6983 15.6966 16.6917L16.5792 18.3247ZM15.543 18.5556C14.5125 18.4881 13.7571 17.6117 13.7571 16.616H15.6133C15.6133 16.6474 15.6247 16.6716 15.639 16.6873C15.6529 16.7027 15.6624 16.7033 15.6645 16.7034L15.543 18.5556ZM13.7571 16.616V12.1844H15.6133V16.616H13.7571ZM15.489 12.6484L14.9844 13.5226L13.3768 12.5947L13.8814 11.7204L15.489 12.6484ZM14.9852 13.5211C14.6266 14.1451 13.9591 14.5287 13.2412 14.5287V12.6725C13.2981 12.6725 13.3502 12.641 13.3759 12.5961L14.9852 13.5211ZM13.2412 14.5287C12.8903 14.5287 12.5448 14.4367 12.2395 14.2618L13.1623 12.6512C13.1873 12.6655 13.2147 12.6725 13.2412 12.6725V14.5287ZM12.2354 14.2594C11.8187 14.0178 11.5154 13.6247 11.3903 13.1565L13.1836 12.6774C13.1828 12.6742 13.1805 12.6686 13.176 12.6628C13.1715 12.657 13.1674 12.6542 13.1664 12.6536L12.2354 14.2594ZM11.3906 13.1575C11.265 12.6897 11.3308 12.1962 11.573 11.7779L13.1794 12.708C13.1807 12.7057 13.183 12.7004 13.184 12.6929C13.185 12.6854 13.1841 12.6794 13.1833 12.6763L11.3906 13.1575ZM12.3762 11.3148C11.9209 11.4342 11.5802 11.7657 11.5776 11.77C11.5768 11.7714 11.5755 11.7736 11.5751 11.7743C11.5749 11.7747 11.5745 11.7754 11.5743 11.7756C11.5743 11.7757 11.5741 11.776 11.574 11.7761C11.5739 11.7763 11.574 11.7762 11.5743 11.7756C11.5749 11.7745 11.576 11.7727 11.5775 11.7701C11.5806 11.7648 11.5852 11.7569 11.5912 11.7464C11.6033 11.7255 11.6211 11.6947 11.6437 11.6555C11.6891 11.577 11.7539 11.4647 11.8321 11.3293C11.9885 11.0586 12.198 10.6958 12.4106 10.3275C12.8366 9.58959 13.2734 8.83294 13.3229 8.74668L14.9331 9.67013C14.8818 9.75948 14.4428 10.5201 14.0181 11.2556C13.8054 11.6239 13.5959 11.9868 13.4395 12.2576C13.3613 12.393 13.2964 12.5054 13.251 12.5839C13.2283 12.6232 13.2105 12.6541 13.1983 12.6751C13.1923 12.6856 13.1876 12.6938 13.1843 12.6994C13.1828 12.7021 13.1814 12.7044 13.1805 12.706C13.18 12.7068 13.1795 12.7078 13.1789 12.7087C13.1787 12.709 13.1781 12.7101 13.1774 12.7113C13.177 12.7121 13.1757 12.7143 13.1748 12.7157C13.1722 12.7201 12.8314 13.0517 12.3762 13.171V11.3148ZM13.2827 8.82515C13.2929 8.80261 13.3253 8.72997 13.3551 8.66302L15.0511 9.41728C15.0228 9.48087 14.987 9.56139 14.9732 9.59166L13.2827 8.82515ZM13.3551 8.66301C13.368 8.63401 13.3822 8.59695 13.4026 8.53946L15.1521 9.15972C15.1269 9.23081 15.0936 9.32165 15.0511 9.41729L13.3551 8.66301ZM13.4025 8.53971C14.0311 6.7651 15.6133 5.64283 17.4947 5.64283V7.49902C16.4027 7.49902 15.5193 8.12296 15.1522 9.15946L13.4025 8.53971ZM17.4947 5.64283C20.0073 5.64283 21.9242 7.83377 21.9242 10.3677H20.068C20.068 8.71451 18.8435 7.49902 17.4947 7.49902V5.64283ZM21.9242 10.3677L21.9244 15.7792L20.0682 15.7792L20.068 10.3677L21.9242 10.3677ZM21.9244 15.7792C21.9244 16.2881 21.7247 16.7715 21.365 17.1318L20.0513 15.8205C20.0586 15.8132 20.0622 15.8069 20.0642 15.8021C20.0662 15.7972 20.0682 15.79 20.0682 15.7792H21.9244ZM21.3644 17.1324C21.0042 17.4927 20.5205 17.6927 20.0111 17.6927V15.8365C20.022 15.8365 20.0291 15.8346 20.0338 15.8326C20.0386 15.8306 20.0447 15.8272 20.0519 15.8199L21.3644 17.1324ZM19.5246 15.9742L19.5247 15.9742L20.4975 17.555L20.4975 17.5551L19.5246 15.9742ZM17.4948 8.02256C16.6124 8.02256 15.9432 8.4946 15.6457 9.3346L13.896 8.71476C14.4548 7.13751 15.8221 6.16638 17.4948 6.16638V8.02256ZM15.6449 9.3366C15.6157 9.4187 15.5776 9.52238 15.5295 9.63041L13.8338 8.8755C13.8522 8.83397 13.8713 8.78416 13.8967 8.71276L15.6449 9.3366ZM15.5293 9.6309C15.4868 9.72622 15.4512 9.80672 15.4239 9.86125C15.407 9.89509 15.3796 9.94725 15.3399 10.005C15.2997 10.0636 15.2599 10.1077 15.2567 10.1114L13.8589 8.89009C13.8611 8.8876 13.8604 8.88841 13.8593 8.88969C13.8579 8.89134 13.8543 8.89554 13.8495 8.90131C13.8446 8.90729 13.8384 8.915 13.8315 8.92418C13.8245 8.93344 13.8173 8.94329 13.8102 8.95368C13.7956 8.97484 13.7845 8.99337 13.7765 9.00739C13.7691 9.02047 13.7645 9.02953 13.7635 9.03157C13.7624 9.03367 13.7631 9.03243 13.7662 9.02568C13.7693 9.01914 13.7736 9.00972 13.7798 8.996C13.786 8.9824 13.7934 8.96599 13.8024 8.94569C13.8115 8.92543 13.8218 8.90222 13.834 8.87501L15.5293 9.6309ZM13.9512 10.2031L13.9476 10.2L15.1608 8.79523L15.1644 8.79835L13.9512 10.2031ZM15.3743 9.93223C15.229 10.2063 14.8143 10.924 13.6332 12.9691L12.0258 12.0408C13.2236 9.96697 13.6098 9.29766 13.7342 9.06303L15.3743 9.93223ZM13.6328 12.9698C13.7071 12.8414 13.7278 12.6866 13.6896 12.5429L11.8956 13.0196C11.8076 12.6883 11.8542 12.3373 12.0262 12.0401L13.6328 12.9698ZM13.6888 12.54C13.6506 12.3981 13.5567 12.2741 13.4262 12.1987L12.4982 13.8063C12.2 13.6341 11.9851 13.352 11.8964 13.0225L13.6888 12.54ZM13.4244 12.1977C13.3188 12.137 13.216 12.1374 13.1451 12.1565C13.0744 12.1756 12.9838 12.2271 12.9218 12.3352L14.5316 13.2591C14.1272 13.9639 13.2028 14.211 12.4999 13.8073L13.4244 12.1977ZM12.923 12.333L13.9167 10.6127L15.524 11.5411L14.5304 13.2614L12.923 12.333ZM13.9172 10.6117C14.1853 10.1489 14.7325 9.91727 15.2573 10.0593L14.7724 11.851C15.067 11.9308 15.3741 11.7999 15.5234 11.542L13.9172 10.6117ZM15.255 10.0587C15.7757 10.1982 16.137 10.67 16.137 11.2081H14.2808C14.2808 11.5093 14.483 11.7735 14.7747 11.8517L15.255 10.0587ZM16.137 11.2081V16.6162H14.2808V11.2081H16.137ZM16.137 16.6162C16.137 16.5104 16.0978 16.4143 16.0335 16.3407C15.9693 16.2673 15.8559 16.1914 15.699 16.1811L15.5771 18.0333C14.7958 17.9818 14.2808 17.3013 14.2808 16.6162H16.137ZM15.6871 16.1804C15.5774 16.1746 15.4435 16.2147 15.3417 16.3164L16.653 17.63C16.36 17.9225 15.9716 18.0542 15.589 18.034L15.6871 16.1804ZM15.3411 16.3169C15.253 16.405 15.2041 16.5257 15.2041 16.6467H17.0603C17.0603 17.0153 16.9155 17.3675 16.6536 17.6295L15.3411 16.3169ZM15.2041 16.6467V13.1097H17.0603V16.6467H15.2041ZM15.2041 13.1097C15.2041 12.4525 15.7368 11.9197 16.3941 11.9197V13.7759C16.762 13.7759 17.0603 13.4776 17.0603 13.1097H15.2041ZM16.3941 11.9197C17.0509 11.9197 17.584 12.4519 17.584 13.1097H15.7279C15.7279 13.4778 16.0265 13.7759 16.3941 13.7759V11.9197ZM17.584 13.1097L17.5839 17.4507L15.7277 17.4506L15.7279 13.1097L17.584 13.1097ZM17.5839 17.4506C17.5839 17.1926 17.3755 16.9842 17.1174 16.9842V18.8404C16.3503 18.8404 15.7277 18.2177 15.7277 17.4506H17.5839ZM17.1174 16.9842C16.9966 16.9842 16.8765 17.0329 16.7886 17.1206L18.0999 18.4344C17.8378 18.6959 17.4855 18.8404 17.1174 18.8404V16.9842ZM16.7874 17.1218C16.6996 17.2097 16.651 17.3299 16.651 17.4506H18.5072C18.5072 17.8187 18.3627 18.171 18.1011 18.4331L16.7874 17.1218ZM16.651 17.4506V13.1097H18.5072V17.4506H16.651ZM16.651 13.1097C16.651 12.4529 17.1832 11.9197 17.841 11.9197V13.7759C18.2091 13.7759 18.5072 13.4772 18.5072 13.1097H16.651ZM17.841 11.9197C18.4978 11.9197 19.031 12.4519 19.031 13.1097H17.1748C17.1748 13.4778 17.4734 13.7759 17.841 13.7759V11.9197ZM19.031 13.1097L19.0308 16.606L17.1746 16.606L17.1748 13.1096L19.031 13.1097ZM19.0308 16.606V16.6467H17.1746V16.606H19.0308ZM19.0308 16.6467C19.0308 16.388 18.8219 16.18 18.5645 16.18V18.0362C17.7977 18.0362 17.1746 17.414 17.1746 16.6467H19.0308ZM18.5645 16.18C18.4412 16.18 18.3218 16.2302 18.2363 16.3154L19.5464 17.6303C19.2857 17.89 18.9348 18.0362 18.5645 18.0362V16.18ZM18.2357 16.316C18.1469 16.4046 18.098 16.5257 18.098 16.6465H19.9542C19.9542 17.015 19.8096 17.3676 19.547 17.6297L18.2357 16.316ZM18.098 16.6465V13.1095H19.9542V16.6465H18.098ZM18.098 13.1095C18.098 12.4527 18.6303 11.9195 19.288 11.9195V13.7757C19.6562 13.7757 19.9542 13.4771 19.9542 13.1095H18.098ZM19.288 11.9195C19.9449 11.9195 20.478 12.4518 20.478 13.1095H18.6218C18.6218 13.4777 18.9205 13.7757 19.288 13.7757V11.9195ZM20.478 13.1096L20.4777 15.7794L18.6215 15.7792L18.6218 13.1094L20.478 13.1096ZM20.4777 15.7793C20.4777 15.5219 20.2697 15.313 20.0111 15.313V17.1692C19.2437 17.1692 18.6215 16.5461 18.6215 15.7793H20.4777ZM20.0111 15.313C19.8893 15.313 19.7692 15.3623 19.6819 15.4494L20.9932 16.7632C20.7321 17.0238 20.3804 17.1692 20.0111 17.1692V15.313ZM19.6813 15.4501C19.5929 15.5384 19.5444 15.659 19.5444 15.7793H21.4006C21.4006 16.1469 21.2567 16.4997 20.9938 16.7626L19.6813 15.4501ZM19.5444 15.7793L19.5446 10.3678L21.4008 10.3679L21.4006 15.7793L19.5444 15.7793ZM19.5446 10.3678C19.5446 8.99109 18.5436 8.02262 17.4947 8.02262V6.16643C19.7301 6.16643 21.4008 8.13511 21.4008 10.3678H19.5446ZM16.6024 6.83956L16.6024 6.8395L18.3871 7.34944L18.3871 7.34949L16.6024 6.83956Z" fill="#4CAF4F" mask="url(#path-1-inside-1_211_2338)"/>
<path d="M11.5285 21.7395C11.4042 21.8143 11.2435 21.774 11.1692 21.6498C11.0947 21.5259 11.1351 21.365 11.2589 21.2905M11.5285 21.7395L13.7911 18.695C14.0097 18.5637 14.298 18.6155 14.4328 18.8105M11.5285 21.7395L14.5614 19.92H14.5615L14.5619 19.9199M11.5285 21.7395L15.7259 20.2982C15.8318 20.2346 15.9066 20.1339 15.9364 20.0143M11.2589 21.2905L14.2919 19.471C14.3979 19.4074 14.4728 19.3065 14.5027 19.1873M11.2589 21.2905L11.2896 21.3417L11.3936 21.5151L11.3938 21.5154L11.4407 21.5935L11.4976 21.6885L11.4977 21.6884L11.4978 21.6884L11.498 21.6882M11.2589 21.2905L11.2897 21.3417M14.5027 19.1873C14.5355 19.0565 14.5105 18.9226 14.4328 18.8105M14.5027 19.1873L14.5775 19.2061L14.5704 19.0522C14.5654 18.9463 14.5345 18.8523 14.482 18.7767L14.4819 18.7765L14.4328 18.8105M14.5027 19.1873L14.5775 19.2061L14.5849 19.3649L14.4331 19.456H14.4328L14.3226 19.5221L14.3226 19.5221L14.3226 19.5221L11.2898 21.3416M14.4328 18.8105L14.4819 18.7765L12.2425 22.929C12.3378 22.8717 12.3693 22.7478 12.3115 22.6517C12.2543 22.5563 12.13 22.525 12.0343 22.5823L15.0672 20.7629C15.1369 20.7211 15.2099 20.6895 15.2845 20.6678L15.7549 20.3466L15.7549 20.3465L15.7808 20.3289C15.8912 20.2535 15.9642 20.1491 15.9942 20.0289L15.9942 20.0288L15.9364 20.0143M11.2898 21.3416C11.3852 21.2846 11.5094 21.3155 11.567 21.4109C11.5671 21.4111 11.5673 21.4114 11.5674 21.4116C11.6246 21.5076 11.5931 21.6311 11.498 21.6882M11.2898 21.3416C11.2897 21.3416 11.2897 21.3417 11.2897 21.3417M11.2898 21.3416L11.2897 21.3417M11.498 21.6882L14.5307 19.869L14.5307 19.8689L14.5309 19.8688C14.531 19.8688 14.531 19.8687 14.5311 19.8687L14.5614 19.9191L14.5615 19.9193L14.5619 19.9199M11.498 21.6882L11.394 21.5153L11.3938 21.5149L11.3587 21.4564L11.2897 21.3417M14.5619 19.9199V19.8494C14.6204 19.8111 14.6739 19.7666 14.7218 19.7171L15.221 19.4565L15.221 19.4565L15.2486 19.442C15.3289 19.4002 15.4098 19.3806 15.4867 19.3806C15.5283 19.3806 15.5711 19.3857 15.6148 19.3965C15.6148 19.3966 15.6149 19.3966 15.6149 19.3966C15.615 19.3966 15.6152 19.3966 15.6153 19.3967L15.713 19.0043M14.5619 19.9199L15.251 19.5065C15.3566 19.4431 15.4802 19.4246 15.6004 19.4545C15.72 19.4843 15.8208 19.5591 15.8843 19.6649C15.9478 19.7708 15.9663 19.8949 15.9364 20.0143M15.713 19.0043C15.713 19.0043 15.713 19.0043 15.713 19.0043M15.713 19.0043C15.9521 19.064 16.1555 19.215 16.2821 19.426L16.3332 19.3954M15.713 19.0043L15.7274 18.9464M15.713 19.0043L15.615 19.3966C15.7507 19.4305 15.8632 19.5139 15.9353 19.634C15.9353 19.6341 15.9353 19.6342 15.9354 19.6342C15.9354 19.6342 15.9354 19.6342 15.9354 19.6343C16.0077 19.755 16.0281 19.8934 15.9942 20.0286L15.9942 20.0288L15.9364 20.0143M15.713 19.0043C15.7129 19.0043 15.7129 19.0042 15.7128 19.0042L15.7122 19.0041C15.6405 18.9863 15.5679 18.9772 15.4956 18.9765M15.713 19.0043L15.7274 18.9464M15.2754 21.1096L15.537 20.9527L15.8067 21.1118C15.8875 21.1594 15.9486 21.2191 15.9899 21.2881L15.99 21.2883C15.99 21.2884 15.9901 21.2885 15.9901 21.2886L15.9392 21.3192M15.2754 21.1096L16.0492 21.6832C16.0829 21.5475 16.0623 21.4092 15.9902 21.2886L15.9392 21.3192M15.2754 21.1096L15.3061 21.1608M15.2754 21.1096L15.2753 21.1096L15.3061 21.1608M15.9392 21.3192C15.8082 21.1009 15.524 21.0299 15.3061 21.1608M15.9392 21.3192C16.0029 21.425 16.0214 21.5493 15.9915 21.6688L15.3061 21.1608M16.3814 21.0389C16.3836 21.0425 16.3858 21.0461 16.388 21.0498L16.3814 21.0389ZM16.3814 21.0389C16.3657 21.0511 16.3498 21.0631 16.3336 21.0747C16.3347 21.0764 16.3358 21.0782 16.3369 21.08L16.3814 21.0389ZM16.3092 20.3311C16.3426 20.267 16.3687 20.1986 16.3866 20.1269L16.3092 20.3311ZM16.3092 20.3311C16.3258 20.3415 16.3424 20.3522 16.3587 20.3633C16.3959 20.294 16.4249 20.2197 16.4444 20.1412C16.5082 19.8862 16.4687 19.6214 16.3332 19.3954M16.3092 20.3311L16.3867 20.1268C16.4464 19.8876 16.4087 19.6373 16.2824 19.4264L16.2822 19.4261C16.2822 19.4261 16.2822 19.426 16.2821 19.426L16.3332 19.3954M16.3332 19.3954C16.1979 19.1697 15.9828 19.0102 15.7274 18.9464M15.7274 18.9464L15.4904 18.9165M15.4904 18.9165C15.4925 18.9365 15.4943 18.9566 15.4956 18.9765M15.4904 18.9165C15.4891 18.9165 15.4879 18.9165 15.4867 18.9165C15.3298 18.9165 15.1756 18.9567 15.0339 19.0307M15.4904 18.9165L15.0339 19.0307M15.4956 18.9765C15.4963 18.9874 15.497 18.9983 15.4975 19.0091L15.4867 19.0096L15.1986 19.023M15.4956 18.9765C15.4926 18.9765 15.4897 18.9765 15.4867 18.9765C15.3888 18.9766 15.2916 18.9923 15.1986 19.023M15.1986 19.023L15.0339 19.0307M15.1986 19.023C15.1513 19.0386 15.1052 19.0582 15.0604 19.0815C15.0442 19.09 15.0282 19.099 15.0124 19.1084L15.0122 19.1085L14.9792 19.1283M15.0339 19.0307L14.7694 19.2542L14.7695 19.2541L14.9528 19.3C14.9528 19.3001 14.9528 19.3001 14.9528 19.3001C14.9671 19.2431 14.9758 19.1856 14.9792 19.1283M15.0339 19.0307L14.9631 18.8949M15.0339 19.0307C15.0266 18.8726 14.9849 18.7169 14.9049 18.5779C14.8867 18.586 14.8687 18.5944 14.8508 18.6032M14.9792 19.1283C14.9811 19.0965 14.9813 19.0648 14.9799 19.0332C14.9778 18.9866 14.9722 18.9404 14.9631 18.8949M14.9792 19.1283L14.9631 18.8949M14.9631 18.8949L14.8192 18.6193C14.8297 18.6138 14.8402 18.6085 14.8508 18.6032M14.9631 18.8949L14.8143 18.5463C14.8272 18.5649 14.8394 18.5839 14.8508 18.6032M14.9631 18.8949C14.9427 18.7929 14.9049 18.6944 14.8508 18.6032M16.0425 20.7121L16.1218 20.5776C16.0874 20.6098 16.0505 20.6394 16.0112 20.6663C15.9961 20.6766 15.9806 20.6865 15.9648 20.696L15.9646 20.6961L15.9311 20.7163L16.0425 20.7121ZM8.63167 18.5525L8.57891 18.5247C8.56921 18.5422 8.54507 18.5857 8.5094 18.6499C8.50057 18.6658 8.49103 18.683 8.48083 18.7014C8.49901 18.7105 8.51736 18.7184 8.53573 18.7253C8.5671 18.6688 8.59908 18.6112 8.63167 18.5525ZM12.7786 23.8231C12.7786 23.8231 12.7786 23.8232 12.7785 23.8232L12.7786 23.8231Z" fill="#4CAF4F" stroke="#4CAF4F" stroke-width="0.928093"/>
<path d="M24.4805 19.3886L24.4805 19.3886L24.4805 19.3886ZM24.4805 19.3886C24.3833 19.2144 24.3872 18.9999 24.4902 18.8282L24.4805 19.3886ZM18.7389 18.9763C18.6664 18.9769 18.5935 18.9861 18.5216 19.0041L18.7389 18.9763ZM18.7389 18.9763C18.7403 18.9564 18.742 18.9364 18.7442 18.9164L18.7389 18.9763ZM24.0629 19.714L24.0235 19.643L24.0629 19.714ZM22.9447 21.3415C22.9446 21.3415 22.9445 21.3414 22.9444 21.3413L22.9446 21.3414L22.9447 21.3415ZM21.4559 23.8235C21.4557 23.8234 21.4556 23.8233 21.4555 23.8233L21.4559 23.8235ZM21.4554 23.8232L21.4555 23.8233L21.4554 23.8232Z" fill="#4CAF4F" stroke="#4CAF4F" stroke-width="0.928093"/>
</svg>
