<svg width="97" height="18" viewBox="0 0 97 18" fill="none" xmlns="http://www.w3.org/2000/svg">
<path d="M15.5136 0.16571V17.69H12.3133L4.68927 6.6603H4.56092V17.69H0.855835V0.16571H4.10741L11.6716 11.1868H11.8256V0.16571H15.5136Z" fill="white"/>
<path d="M24.496 17.9467C23.1441 17.9467 21.9804 17.6729 21.0049 17.1252C20.0351 16.5719 19.2878 15.7904 18.763 14.7807C18.2382 13.7653 17.9758 12.5645 17.9758 11.1783C17.9758 9.8263 18.2382 8.63976 18.763 7.61866C19.2878 6.59755 20.0266 5.80177 20.9792 5.23132C21.9376 4.66087 23.0614 4.37564 24.3506 4.37564C25.2177 4.37564 26.0249 4.5154 26.7722 4.79492C27.5251 5.06874 28.1812 5.48232 28.7402 6.03565C29.305 6.58899 29.7442 7.28494 30.0579 8.12351C30.3717 8.95636 30.5286 9.93184 30.5286 11.0499V12.0511H19.4304V9.79208H27.0973C27.0973 9.26726 26.9832 8.80234 26.755 8.39732C26.5269 7.9923 26.2103 7.6757 25.8052 7.44752C25.4059 7.21364 24.941 7.09669 24.4105 7.09669C23.8571 7.09669 23.3666 7.22504 22.9387 7.48175C22.5166 7.73275 22.1857 8.07216 21.9461 8.5C21.7065 8.92214 21.5839 9.39276 21.5782 9.91187V12.0596C21.5782 12.7099 21.698 13.2718 21.9376 13.7453C22.1829 14.2188 22.528 14.5839 22.9729 14.8406C23.4179 15.0973 23.9456 15.2256 24.5559 15.2256C24.961 15.2256 25.3318 15.1686 25.6683 15.0545C26.0049 14.9404 26.293 14.7693 26.5326 14.5411C26.7721 14.3129 26.9547 14.0334 27.0802 13.7025L30.4516 13.925C30.2804 14.735 29.9296 15.4424 29.3991 16.0471C28.8743 16.646 28.1954 17.1138 27.3626 17.4504C26.5354 17.7812 25.5799 17.9467 24.496 17.9467Z" fill="white"/>
<path d="M35.7183 4.54678L38.1313 9.14176L40.6042 4.54678H44.3435L40.5357 11.1184L44.4462 17.69H40.724L38.1313 13.1463L35.5813 17.69H31.8164L35.7183 11.1184L31.9533 4.54678H35.7183Z" fill="white"/>
<path d="M51.9761 17.9467C50.6298 17.9467 49.4718 17.6615 48.5021 17.091C47.538 16.5148 46.7964 15.7162 46.2773 14.6951C45.7639 13.674 45.5072 12.4989 45.5072 11.1697C45.5072 9.82345 45.7668 8.64262 46.2859 7.62721C46.8107 6.60611 47.5551 5.81033 48.5192 5.23987C49.4832 4.66372 50.6298 4.37564 51.959 4.37564C53.1056 4.37564 54.1096 4.58386 54.971 5.00028C55.8324 5.41671 56.514 6.00143 57.016 6.75442C57.518 7.50742 57.7947 8.39162 57.8461 9.40702H54.4062C54.3093 8.751 54.0526 8.22333 53.6361 7.82402C53.2254 7.419 52.6863 7.21649 52.0189 7.21649C51.4542 7.21649 50.9607 7.37051 50.5386 7.67855C50.1221 7.98089 49.797 8.42299 49.5631 9.00485C49.3292 9.58671 49.2123 10.2912 49.2123 11.1184C49.2123 11.9569 49.3264 12.67 49.5545 13.2576C49.7884 13.8451 50.1164 14.2929 50.5386 14.601C50.9607 14.909 51.4542 15.063 52.0189 15.063C52.4353 15.063 52.809 14.9775 53.1398 14.8063C53.4764 14.6352 53.7531 14.3871 53.9698 14.0619C54.1923 13.731 54.3378 13.3346 54.4062 12.8725H57.8461C57.789 13.8765 57.5152 14.7607 57.0246 15.5251C56.5397 16.2838 55.8694 16.8771 55.0138 17.3049C54.1581 17.7328 53.1455 17.9467 51.9761 17.9467Z" fill="white"/>
<path d="M66.1696 17.9467C64.8177 17.9467 63.654 17.6729 62.6785 17.1252C61.7087 16.5719 60.9614 15.7904 60.4366 14.7807C59.9118 13.7653 59.6494 12.5645 59.6494 11.1783C59.6494 9.8263 59.9118 8.63976 60.4366 7.61866C60.9614 6.59755 61.7002 5.80177 62.6528 5.23132C63.6112 4.66087 64.735 4.37564 66.0242 4.37564C66.8913 4.37564 67.6985 4.5154 68.4458 4.79492C69.1987 5.06874 69.8548 5.48232 70.4138 6.03565C70.9786 6.58899 71.4178 7.28494 71.7316 8.12351C72.0453 8.95636 72.2022 9.93184 72.2022 11.0499V12.0511H61.104V9.79208H68.7709C68.7709 9.26726 68.6568 8.80234 68.4286 8.39732C68.2005 7.9923 67.8839 7.6757 67.4788 7.44752C67.0795 7.21364 66.6146 7.09669 66.0841 7.09669C65.5307 7.09669 65.0402 7.22504 64.6123 7.48175C64.1902 7.73275 63.8593 8.07216 63.6197 8.5C63.3801 8.92214 63.2575 9.39276 63.2518 9.91187V12.0596C63.2518 12.7099 63.3716 13.2718 63.6112 13.7453C63.8565 14.2188 64.2016 14.5839 64.6465 14.8406C65.0915 15.0973 65.6192 15.2256 66.2295 15.2256C66.6346 15.2256 67.0054 15.1686 67.3419 15.0545C67.6785 14.9404 67.9666 14.7693 68.2062 14.5411C68.4458 14.3129 68.6283 14.0334 68.7538 13.7025L72.1252 13.925C71.954 14.735 71.6032 15.4424 71.0727 16.0471C70.5479 16.646 69.869 17.1138 69.0362 17.4504C68.209 17.7812 67.2535 17.9467 66.1696 17.9467Z" fill="white"/>
<path d="M78.2261 10.0916V17.69H74.581V4.54678H78.055V6.86566H78.209C78.5 6.10126 78.9877 5.49658 79.6722 5.05162C80.3568 4.60097 81.1868 4.37564 82.1623 4.37564C83.075 4.37564 83.8708 4.5753 84.5496 4.97462C85.2284 5.37393 85.7561 5.94438 86.1326 6.68597C86.5091 7.42185 86.6973 8.30035 86.6973 9.32145V17.69H83.0522V9.97177C83.0579 9.16743 82.8525 8.53994 82.4361 8.08928C82.0196 7.63292 81.4463 7.40474 80.7162 7.40474C80.2256 7.40474 79.792 7.51027 79.4155 7.72134C79.0447 7.93241 78.7538 8.24045 78.5427 8.64547C78.3374 9.04479 78.2318 9.52682 78.2261 10.0916Z" fill="white"/>
<path d="M96.5612 4.54678V7.28494H88.6461V4.54678H96.5612ZM90.4431 1.39789H94.0882V13.6512C94.0882 13.9877 94.1396 14.2502 94.2423 14.4384C94.345 14.6209 94.4876 14.7493 94.6701 14.8235C94.8584 14.8976 95.0751 14.9347 95.3204 14.9347C95.4916 14.9347 95.6627 14.9204 95.8338 14.8919C96.005 14.8577 96.1362 14.832 96.2274 14.8149L96.8007 17.5274C96.6182 17.5844 96.3615 17.65 96.0306 17.7242C95.6998 17.8041 95.2976 17.8526 94.8241 17.8697C93.9456 17.9039 93.1755 17.7869 92.5138 17.5188C91.8578 17.2507 91.3472 16.8343 90.9821 16.2696C90.6171 15.7048 90.4374 14.9917 90.4431 14.1304V1.39789Z" fill="white"/>
</svg>
