<svg width="60" height="103" viewBox="0 0 60 103" fill="none" xmlns="http://www.w3.org/2000/svg">
<path d="M13.234 76.7335C2.11913 68.9711 -0.398793 54.5614 0.0400449 41.6049C0.111985 39.4467 -0.12541 37.159 0.903341 35.2669C1.93209 33.3749 4.3349 32.0728 6.27011 32.9792C7.87438 33.7346 8.57221 35.605 9.47147 37.1518C10.6714 39.2119 12.4297 40.8904 14.5433 41.9934C15.9173 42.7128 17.6223 43.1444 18.982 42.3962C20.8525 41.3675 21.0683 38.7992 21.0539 36.641C21.0539 32.6267 21.0299 28.6172 20.982 24.6125C20.8527 22.4621 21.0713 20.3049 21.6294 18.2242C22.2985 16.1811 23.7876 14.289 25.8236 13.7135C27.8595 13.138 30.399 14.325 30.8594 16.4257C30.9387 17.3154 30.9603 18.2093 30.9241 19.1019C30.9817 20.0011 31.399 20.9867 32.2407 21.2601C33.0824 21.5334 33.9601 20.9076 34.6075 20.2745C36.8233 18.1163 38.334 15.3034 39.7369 12.5265C41.1397 9.74958 42.5138 6.89353 44.5281 4.52668C46.5425 2.15983 49.3266 0.282187 52.4416 0.102335C55.5566 -0.0775161 58.8011 1.83611 59.5781 4.85761C60.3551 7.87912 58.5925 10.9654 56.7005 13.4185C53.8454 17.06 50.4799 20.2704 46.7079 22.9507C45.9716 23.3527 45.384 23.9807 45.0317 24.742C44.5641 26.1808 45.9238 27.6196 47.341 28.0729C48.9453 28.6052 50.6862 28.4397 52.3768 28.6412C54.0674 28.8426 55.866 29.5764 56.5062 31.1591C57.3839 33.3605 55.5422 35.6626 53.7365 37.1733C50.1107 40.1948 45.9936 42.5722 41.5642 44.2019C39.9815 44.7775 38.3196 45.2882 37.0391 46.3961C35.7586 47.504 34.996 49.4392 35.7658 50.9572C36.5355 52.4751 38.5139 52.9571 40.1757 52.6478C41.8376 52.3384 43.3123 51.4464 44.895 50.8493C47.8518 49.7342 51.6646 49.9356 53.5279 52.4895C54.1051 53.3693 54.4705 54.3709 54.5953 55.4156C54.7202 56.4604 54.601 57.52 54.2473 58.5109C53.5273 60.4831 52.4191 62.2908 50.9884 63.8273C46.2766 69.4569 40.1545 73.7345 33.2478 76.2227C26.3919 78.5967 20.0395 79.2442 13.2268 76.7479" fill="#4CAF4F"/>
<path d="M56.4128 1.87927C56.4128 1.87927 56.348 1.95121 56.2041 2.08071L55.5639 2.64903C55.0027 3.15262 54.1754 3.88642 53.1323 4.85761C50.1747 7.60369 47.4284 10.5689 44.9167 13.7279C43.3124 15.7206 41.6506 17.9796 39.8808 20.4328C38.1111 22.8859 36.2838 25.5334 34.4709 28.3462C32.5381 31.3125 30.7681 34.3817 29.1688 37.5402C28.3343 39.1877 27.6006 40.9071 26.8452 42.6624L24.615 48.022C21.6754 54.7729 19.1151 61.6828 16.9461 68.7193C15.1991 74.4765 13.9948 80.3846 13.3491 86.3663C12.9307 90.4031 12.8633 94.4686 13.1477 98.5171C13.2628 99.9559 13.3707 101.057 13.4714 101.805C13.5146 102.164 13.5434 102.452 13.5721 102.661V102.956C13.5412 102.862 13.5195 102.766 13.5074 102.668C13.4714 102.459 13.4282 102.179 13.3707 101.819C13.2412 101.1 13.1045 99.9631 12.975 98.5243C12.6279 94.4683 12.652 90.3891 13.047 86.3376C13.6526 80.3303 14.8306 74.3947 16.5649 68.6114C18.7156 61.5551 21.2689 54.6278 24.2122 47.8637L26.4999 42.5257C27.2552 40.7776 27.9962 39.0438 28.8379 37.3892C30.4483 34.2211 32.2328 31.1445 34.1831 28.1736C36.0248 25.2959 37.8809 22.6917 39.629 20.2601C41.3772 17.8285 43.0678 15.5552 44.6649 13.5696C47.2021 10.4189 49.9854 7.47451 52.9884 4.76409C54.0531 3.80728 54.902 3.08787 55.4775 2.60587L56.1466 2.06631C56.2286 1.99491 56.3178 1.93222 56.4128 1.87927Z" fill="#263238"/>
<path d="M28.9314 37.3748C28.8299 37.0784 28.76 36.7722 28.7228 36.4611C28.6077 35.864 28.4782 35.0223 28.3271 33.9288C28.0178 31.7706 27.7012 28.8138 27.3631 25.5405C27.025 22.2672 26.6437 19.3033 26.3272 17.1667C26.1617 16.1019 26.0178 15.2458 25.9171 14.6487C25.8385 14.3431 25.7974 14.0291 25.7948 13.7135C25.9187 14.0017 26.008 14.3036 26.061 14.6128C26.2192 15.2027 26.3991 16.0516 26.6005 17.1235C27.0106 19.2817 27.4134 22.2169 27.7516 25.4974C28.0897 28.7779 28.3775 31.6555 28.6005 33.8928C28.7084 34.9 28.8019 35.7561 28.8739 36.4396C28.9297 36.7479 28.9491 37.0618 28.9314 37.3748Z" fill="#263238"/>
<path d="M56.6141 32.2094C56.264 32.2856 55.9076 32.329 55.5494 32.3389C54.83 32.4037 53.8084 32.49 52.5423 32.6339C50.01 32.9073 46.528 33.4108 42.708 34.1302C38.888 34.8496 35.4564 35.6626 32.9888 36.2885C31.7587 36.605 30.7659 36.8928 30.1112 37.087C29.7617 37.2112 29.3999 37.298 29.0321 37.346C29.3646 37.1788 29.7112 37.0416 30.068 36.9359C30.7443 36.6985 31.7227 36.3676 32.9457 36.0151C35.3988 35.2957 38.8304 34.4396 42.6648 33.7058C45.913 33.0847 49.1905 32.6285 52.4847 32.3389C53.7581 32.231 54.7868 32.1878 55.5062 32.1734C55.8758 32.1483 56.247 32.1604 56.6141 32.2094Z" fill="#263238"/>
<path d="M16.9173 68.1078C16.8406 68.0036 16.7778 67.89 16.7303 67.7697L16.2555 66.7697C15.8454 65.8992 15.2915 64.6115 14.6296 63.036C13.2915 59.8706 11.5865 55.439 9.77362 50.5183C7.96072 45.5976 6.29169 41.166 5.02554 37.9647C4.40685 36.4108 3.89608 35.1374 3.5148 34.1878L3.11191 33.159C3.05607 33.0404 3.01734 32.9144 2.99683 32.7849C3.07353 32.8891 3.13638 33.0027 3.18386 33.1231L3.65867 34.123C4.06154 34.9935 4.62268 36.2813 5.28453 37.8568C6.62263 41.0222 8.32762 45.4537 10.1405 50.3744C11.9534 55.2952 13.6225 59.7267 14.8886 62.9281C15.5073 64.482 16.0181 65.7553 16.3922 66.7049C16.5576 67.115 16.6943 67.4244 16.8022 67.7337C16.8581 67.8523 16.8968 67.9783 16.9173 68.1078Z" fill="#263238"/>
<path d="M53.6646 56.2592C53.5494 56.3253 53.4261 56.3761 53.2977 56.4103L52.233 56.77L48.2979 58.0433C44.9742 59.1224 40.3844 60.662 35.3485 62.3598C30.3127 64.0576 25.7013 65.5683 22.356 66.5755C20.687 67.0862 19.3274 67.4747 18.3849 67.7337L17.2986 68.0143C17.1723 68.0544 17.0421 68.0809 16.9102 68.0934C17.0254 68.0273 17.1487 67.9765 17.277 67.9423L18.3418 67.5826L22.2769 66.3093C25.6006 65.2302 30.1904 63.6907 35.2262 61.9929C40.2621 60.2951 44.8663 58.7843 48.2115 57.7771C49.8877 57.2663 51.2402 56.8779 52.1898 56.6189L53.2761 56.3383C53.4024 56.2982 53.5327 56.2717 53.6646 56.2592Z" fill="#263238"/>
</svg>
