<svg width="75" height="13" viewBox="0 0 75 13" fill="none" xmlns="http://www.w3.org/2000/svg">
<path d="M72.8888 12.8279C73.0342 12.8108 73.1784 12.7843 73.3205 12.7488C73.5205 12.6852 73.7048 12.5799 73.861 12.4397C74.0173 12.2996 74.142 12.1278 74.2269 11.9359C74.3397 11.6453 74.384 11.3327 74.3564 11.0222C74.3564 10.6697 74.3564 10.3028 74.3564 9.87837C74.3564 9.05105 74.3564 8.09424 74.3564 7.00075V2.43251C74.3908 2.10178 74.3176 1.76877 74.1478 1.48289C73.9661 1.19504 73.6883 0.980929 73.3636 0.878591C73.0056 0.812096 72.6407 0.79035 72.2774 0.813847H61.9251L1.96258 0.590833C1.64005 0.591595 1.32876 0.709457 1.08661 0.9225C0.844451 1.13554 0.687908 1.42926 0.646067 1.74907C0.646067 2.46847 0.646067 3.18788 0.646067 3.90729C0.646067 5.3461 0.646067 6.78491 0.646067 8.22372C0.646067 8.94313 0.646067 9.66254 0.646067 10.3819C0.619276 10.7158 0.633772 11.0516 0.689229 11.3819C0.775384 11.6755 0.96107 11.9298 1.21439 12.1013C1.47848 12.2738 1.79191 12.3546 2.10646 12.3315H5.23587L21.1563 12.4179L48.1125 12.5833L66.2847 12.7272L71.227 12.7848H66.2847H48.1125L21.1563 12.7056L5.23587 12.6409H2.10646C1.71702 12.6672 1.32989 12.5634 1.00577 12.3459C0.678421 12.1192 0.439515 11.7862 0.329526 11.4035C0.265047 11.038 0.245717 10.6659 0.271972 10.2956C0.271972 9.57621 0.271972 8.8568 0.271972 8.1374C0.271972 6.69859 0.271972 5.25977 0.271972 3.82096C0.271972 3.10155 0.271972 2.38216 0.271972 1.62678C0.322832 1.21603 0.521985 0.837997 0.831989 0.563763C1.14199 0.28953 1.54149 0.137975 1.95538 0.137604L61.9179 0.468524L72.2701 0.547671C72.6556 0.524022 73.0426 0.550613 73.4212 0.626795C73.795 0.748921 74.1102 1.00523 74.3061 1.3462C74.4922 1.66307 74.5728 2.03087 74.5363 2.39653C74.5363 2.73465 74.5363 3.07278 74.5363 3.39651C74.5363 4.69864 74.5363 5.89285 74.5363 6.99354C74.5363 8.09424 74.5363 9.02227 74.5363 9.87117C74.5363 10.2812 74.5363 10.6625 74.5363 11.015C74.5639 11.3368 74.512 11.6604 74.3852 11.9574C74.2918 12.1559 74.1567 12.332 73.9891 12.4735C73.8215 12.615 73.6253 12.7188 73.414 12.7776C73.2453 12.8353 73.0654 12.8526 72.8888 12.8279Z" fill="#E0E0E0"/>
</svg>
