<svg width="4" height="4" viewBox="0 0 4 4" fill="none" xmlns="http://www.w3.org/2000/svg">
<path d="M3.32841 2.12307C3.30856 2.41287 3.20399 2.69046 3.02768 2.92131C2.85137 3.15217 2.61111 3.32612 2.33675 3.42155C2.06238 3.51697 1.76603 3.52968 1.48451 3.45806C1.203 3.38644 0.94872 3.23364 0.753319 3.0187C0.557918 2.80376 0.429996 2.53614 0.385449 2.24909C0.340901 1.96204 0.381709 1.66824 0.502774 1.40419C0.623838 1.14014 0.819824 0.917483 1.06639 0.763907C1.31296 0.610331 1.59922 0.532606 1.8896 0.540388C2.28843 0.564534 2.66206 0.743498 2.93084 1.03915C3.19961 1.3348 3.34227 1.72375 3.32841 2.12307Z" fill="#4CAF4F"/>
</svg>
