<svg width="4" height="4" viewBox="0 0 4 4" fill="none" xmlns="http://www.w3.org/2000/svg">
<path d="M3.7458 2.10145C3.72616 2.38976 3.62265 2.66605 3.44803 2.8963C3.2734 3.12654 3.03527 3.30071 2.76294 3.39736C2.4906 3.49402 2.19596 3.50894 1.91525 3.44031C1.63454 3.37167 1.38002 3.22245 1.18302 3.01103C0.986019 2.79961 0.855135 2.53522 0.806457 2.25037C0.75778 1.96552 0.793435 1.67266 0.909051 1.40782C1.02467 1.14298 1.21518 0.917706 1.45717 0.759746C1.69915 0.601786 1.98205 0.518038 2.27102 0.518773C2.67623 0.533774 3.05897 0.708761 3.3354 1.00542C3.61183 1.30207 3.7594 1.6962 3.7458 2.10145Z" fill="#4CAF4F"/>
</svg>
