<svg width="95" height="199" viewBox="0 0 95 199" fill="none" xmlns="http://www.w3.org/2000/svg">
<path d="M83.5939 1.00404H69.6662C69.2118 1.01246 68.7635 1.11033 68.3468 1.29206C67.9302 1.47378 67.5535 1.73581 67.2382 2.06316C66.9229 2.39051 66.6751 2.77677 66.5091 3.19989C66.3431 3.62301 66.2621 4.07469 66.2706 4.52913V7.05425C66.2792 7.50834 66.1981 7.95966 66.032 8.38236C65.8659 8.80507 65.6181 9.19086 65.3027 9.51764C64.9872 9.84442 64.6105 10.1058 64.1939 10.2867C63.7773 10.4677 63.3292 10.5647 62.875 10.5721L35.7247 10.4498C34.8062 10.4254 33.935 10.0373 33.3023 9.371C32.6697 8.70466 32.3274 7.81449 32.3506 6.89598V4.37086C32.3739 3.45356 32.0325 2.56445 31.4015 1.89832C30.7704 1.23219 29.901 0.843348 28.9838 0.81699H24.0847L11.8907 0.759441C8.99036 0.742173 6.20132 1.87487 4.1343 3.90953C2.06729 5.94419 0.890719 8.715 0.862223 11.6153L0.142816 187.453C0.136188 188.891 0.413024 190.317 0.957527 191.649C1.50203 192.981 2.30354 194.193 3.31628 195.215C4.32902 196.237 5.53315 197.049 6.85994 197.606C8.18673 198.163 9.61018 198.453 11.049 198.459L82.7594 198.79C84.1992 198.797 85.6262 198.52 86.9589 197.975C88.2917 197.43 89.504 196.628 90.5268 195.615C91.5495 194.601 92.3626 193.396 92.9197 192.069C93.4768 190.741 93.7669 189.317 93.7735 187.877L94.4929 12.0397C94.5102 9.13127 93.3718 6.33501 91.328 4.26561C89.2842 2.19621 86.5024 1.02306 83.5939 1.00404Z" fill="white"/>
</svg>
