<svg width="3" height="4" viewBox="0 0 3 4" fill="none" xmlns="http://www.w3.org/2000/svg">
<path d="M2.99077 2.0367C2.97092 2.3265 2.86634 2.60408 2.69003 2.83494C2.51372 3.0658 2.27344 3.23975 1.99908 3.33517C1.72472 3.4306 1.42838 3.44328 1.14686 3.37166C0.865344 3.30004 0.611075 3.14727 0.415674 2.93233C0.220274 2.71739 0.0923517 2.44976 0.0478042 2.16271C0.00325663 1.87567 0.0440539 1.58187 0.165118 1.31782C0.286183 1.05376 0.482179 0.83111 0.728746 0.677534C0.975313 0.523957 1.26157 0.446211 1.55195 0.453993C1.95079 0.478139 2.32442 0.657125 2.59319 0.952778C2.86197 1.24843 3.00463 1.63737 2.99077 2.0367Z" fill="#4CAF4F"/>
</svg>
