<svg width="4" height="4" viewBox="0 0 4 4" fill="none" xmlns="http://www.w3.org/2000/svg">
<path d="M3.23563 1.97917C3.24978 2.18198 3.22205 2.38552 3.15416 2.57716C3.08628 2.7688 2.97969 2.94443 2.84103 3.09312C2.70236 3.2418 2.53459 3.36036 2.34814 3.44143C2.16169 3.52249 1.96055 3.56433 1.75724 3.56433C1.55393 3.56433 1.35279 3.52249 1.16635 3.44143C0.979895 3.36036 0.812121 3.2418 0.673455 3.09312C0.534789 2.94443 0.428201 2.7688 0.360317 2.57716C0.292433 2.38552 0.264709 2.18198 0.278866 1.97917C0.264709 1.77635 0.292433 1.57279 0.360317 1.38115C0.428201 1.1895 0.534789 1.01387 0.673455 0.865192C0.812121 0.71651 0.979895 0.597947 1.16635 0.516883C1.35279 0.43582 1.55393 0.393982 1.75724 0.393982C1.96055 0.393982 2.16169 0.43582 2.34814 0.516883C2.53459 0.597947 2.70236 0.71651 2.84103 0.865192C2.97969 1.01387 3.08628 1.1895 3.15416 1.38115C3.22205 1.57279 3.24978 1.77635 3.23563 1.97917Z" fill="#4CAF4F"/>
</svg>
