<svg width="4" height="4" viewBox="0 0 4 4" fill="none" xmlns="http://www.w3.org/2000/svg">
<path d="M3.58053 2.05829C3.56089 2.3466 3.45739 2.62287 3.28276 2.85311C3.10813 3.08336 2.87 3.25755 2.59767 3.3542C2.32534 3.45086 2.03069 3.46578 1.74998 3.39715C1.46928 3.32851 1.21476 3.17929 1.01776 2.96787C0.820753 2.75645 0.689847 2.49206 0.64117 2.20721C0.592492 1.92236 0.62817 1.6295 0.743785 1.36466C0.8594 1.09982 1.04992 0.874546 1.2919 0.716586C1.53389 0.558625 1.81676 0.474856 2.10573 0.475591C2.51094 0.490592 2.89368 0.665601 3.17011 0.962257C3.44654 1.25891 3.59413 1.65304 3.58053 2.05829Z" fill="#4CAF4F"/>
</svg>
