<svg width="4" height="4" viewBox="0 0 4 4" fill="none" xmlns="http://www.w3.org/2000/svg">
<path d="M3.65309 1.95755C3.63186 2.24693 3.52616 2.5237 3.34908 2.75355C3.172 2.98341 2.93134 3.15622 2.65695 3.25056C2.38256 3.3449 2.08651 3.35662 1.80552 3.28426C1.52453 3.2119 1.27096 3.05866 1.07627 2.84352C0.881572 2.62839 0.754321 2.36081 0.710285 2.07402C0.666248 1.78722 0.707363 1.49381 0.828543 1.23017C0.949723 0.966533 1.14564 0.744272 1.39197 0.590945C1.63831 0.437617 1.92423 0.359971 2.21428 0.367645C2.61507 0.389978 2.99091 0.569435 3.26026 0.867067C3.52961 1.1647 3.67076 1.55652 3.65309 1.95755Z" fill="#4CAF4F"/>
</svg>
