<svg width="10" height="12" viewBox="0 0 10 12" fill="none" xmlns="http://www.w3.org/2000/svg">
<path opacity="0.1" d="M5.81774 6.26954C6.31749 6.04946 6.74148 5.68729 7.03696 5.22808C7.33244 4.76886 7.48637 4.23289 7.47957 3.68687C7.49819 3.33192 7.44435 2.9769 7.32134 2.64342C7.19833 2.30995 7.00873 2.00501 6.76407 1.74717C6.51941 1.48934 6.22482 1.28402 5.89825 1.1437C5.57167 1.00339 5.21995 0.93103 4.86452 0.93103C4.50908 0.93103 4.15736 1.00339 3.83079 1.1437C3.50422 1.28402 3.20963 1.48934 2.96497 1.74717C2.72031 2.00501 2.5307 2.30995 2.40769 2.64342C2.28469 2.9769 2.23087 3.33192 2.24949 3.68687C2.23853 4.23836 2.3912 4.78074 2.68825 5.24552C2.9853 5.7103 3.4134 6.07665 3.9185 6.29832C-0.110179 6.90262 0.0696901 11.2766 0.0696901 11.2766L9.59462 11.3198C9.59462 11.3198 9.81764 6.86665 5.81774 6.26954Z" fill="black"/>
</svg>
