<svg width="4" height="4" viewBox="0 0 4 4" fill="none" xmlns="http://www.w3.org/2000/svg">
<path d="M3.40811 2.02231C3.38688 2.31168 3.28116 2.58846 3.10408 2.81831C2.927 3.04817 2.68634 3.22098 2.41195 3.31532C2.13756 3.40966 1.84151 3.42138 1.56052 3.34902C1.27953 3.27666 1.02598 3.12342 0.831281 2.90828C0.636586 2.69314 0.509324 2.42559 0.465288 2.1388C0.421251 1.852 0.462377 1.55857 0.583557 1.29493C0.704737 1.03129 0.900641 0.80903 1.14698 0.655703C1.39331 0.502375 1.67924 0.42473 1.96929 0.432403C2.36942 0.456558 2.74414 0.636542 3.01311 0.933757C3.28208 1.23097 3.42389 1.62177 3.40811 2.02231Z" fill="#4CAF4F"/>
</svg>
